<svg width="10" height="10" viewBox="0 0 10 10" fill="none" xmlns="http://www.w3.org/2000/svg">
<path d="M9.33942 2.32245C9.74343 1.94589 9.76569 1.31312 9.38914 0.909107C9.01259 0.505093 8.37982 0.48283 7.9758 0.859382L5.04967 3.58661L2.32245 0.660482C1.94589 0.256468 1.31312 0.234205 0.909107 0.610757C0.505093 0.987309 0.48283 1.62008 0.859382 2.0241L3.58661 4.95022L0.660482 7.67745C0.256468 8.054 0.234205 8.68678 0.610757 9.09079C0.987309 9.4948 1.62008 9.51707 2.0241 9.14052L4.95022 6.41329L7.67745 9.33942C8.054 9.74343 8.68678 9.76569 9.09079 9.38914C9.4948 9.01259 9.51707 8.37982 9.14052 7.9758L6.41329 5.04967L9.33942 2.32245Z" fill="#58595B"/>
</svg>
