<svg width="14" height="14" viewBox="0 0 14 14" fill="none" xmlns="http://www.w3.org/2000/svg">
<path d="M7.66666 3.66668H6.33333V6.33334H3.66666V7.66668H6.33333V10.3333H7.66666V7.66668H10.3333V6.33334H7.66666V3.66668ZM6.99999 0.333344C3.31666 0.333344 0.333328 3.31668 0.333328 7.00001C0.333328 10.6833 3.31666 13.6667 6.99999 13.6667C10.6833 13.6667 13.6667 10.6833 13.6667 7.00001C13.6667 3.31668 10.6833 0.333344 6.99999 0.333344ZM6.99999 12.3333C4.05999 12.3333 1.66666 9.94001 1.66666 7.00001C1.66666 4.06001 4.05999 1.66668 6.99999 1.66668C9.93999 1.66668 12.3333 4.06001 12.3333 7.00001C12.3333 9.94001 9.93999 12.3333 6.99999 12.3333Z" fill="#595959"/>
</svg>
