<svg width="29" height="24" viewBox="0 0 29 24" fill="none" xmlns="http://www.w3.org/2000/svg">
<path d="M7.78867 20.8023C7.78867 22.0387 9.05947 23.057 10.2959 23.057C11.5324 23.057 13.181 22.0387 13.181 20.8023H7.78867ZM18.1427 17.2278V10.6858C18.1427 7.03268 15.6136 3.97526 12.1965 3.16595V2.35663C12.1965 1.36747 11.3984 0.569397 10.4093 0.569397C9.42012 0.569397 8.62204 1.36747 8.62204 2.35663V3.16595C5.20494 3.97526 2.67583 7.03268 2.67583 10.6858V17.2278L0.292847 19.6108V20.8023H20.5257V19.6108L18.1427 17.2278Z" fill="#58595B"/>
<rect x="7.99988" y="3.00006" width="21" height="11" rx="5.5" fill="#F44336"/>
<path d="M10.5468 9.90131L11.3915 9.82318C11.4631 10.2203 11.5998 10.5084 11.8016 10.6874C12.0035 10.8665 12.2622 10.956 12.578 10.956C12.8482 10.956 13.0842 10.8941 13.286 10.7704C13.4911 10.6467 13.6587 10.4824 13.7889 10.2773C13.9191 10.0689 14.0282 9.789 14.1161 9.43744C14.204 9.08588 14.2479 8.7278 14.2479 8.36322C14.2479 8.32416 14.2463 8.26556 14.243 8.18744C14.0673 8.46739 13.8264 8.69525 13.5204 8.87103C13.2177 9.04356 12.8889 9.12982 12.5341 9.12982C11.9416 9.12982 11.4403 8.91498 11.0302 8.48529C10.62 8.0556 10.4149 7.4892 10.4149 6.78607C10.4149 6.06016 10.6281 5.47585 11.0546 5.03314C11.4843 4.59043 12.0214 4.36908 12.6659 4.36908C13.1314 4.36908 13.5562 4.49441 13.9403 4.74506C14.3277 4.99571 14.6206 5.35378 14.8192 5.81927C15.021 6.28151 15.1219 6.95209 15.1219 7.83099C15.1219 8.74571 15.0227 9.47487 14.8241 10.0185C14.6255 10.5589 14.3293 10.9706 13.9354 11.2538C13.5448 11.537 13.0858 11.6786 12.5585 11.6786C11.9986 11.6786 11.5412 11.524 11.1864 11.2148C10.8316 10.9023 10.6184 10.4645 10.5468 9.90131ZM14.1454 6.74213C14.1454 6.23757 14.0103 5.83718 13.7401 5.54095C13.4732 5.24473 13.1509 5.09662 12.7733 5.09662C12.3827 5.09662 12.0425 5.25612 11.7528 5.57513C11.4631 5.89414 11.3182 6.30756 11.3182 6.81537C11.3182 7.2711 11.455 7.64219 11.7284 7.92865C12.0051 8.21185 12.3453 8.35345 12.7489 8.35345C13.1558 8.35345 13.4895 8.21185 13.7499 7.92865C14.0135 7.64219 14.1454 7.24668 14.1454 6.74213ZM16.1132 9.90131L16.9579 9.82318C17.0295 10.2203 17.1662 10.5084 17.368 10.6874C17.5699 10.8665 17.8287 10.956 18.1444 10.956C18.4146 10.956 18.6506 10.8941 18.8524 10.7704C19.0575 10.6467 19.2251 10.4824 19.3553 10.2773C19.4856 10.0689 19.5946 9.789 19.6825 9.43744C19.7704 9.08588 19.8143 8.7278 19.8143 8.36322C19.8143 8.32416 19.8127 8.26556 19.8094 8.18744C19.6337 8.46739 19.3928 8.69525 19.0868 8.87103C18.7841 9.04356 18.4553 9.12982 18.1005 9.12982C17.508 9.12982 17.0067 8.91498 16.5966 8.48529C16.1864 8.0556 15.9813 7.4892 15.9813 6.78607C15.9813 6.06016 16.1945 5.47585 16.621 5.03314C17.0507 4.59043 17.5878 4.36908 18.2323 4.36908C18.6978 4.36908 19.1226 4.49441 19.5067 4.74506C19.8941 4.99571 20.1871 5.35378 20.3856 5.81927C20.5874 6.28151 20.6884 6.95209 20.6884 7.83099C20.6884 8.74571 20.5891 9.47487 20.3905 10.0185C20.1919 10.5589 19.8957 10.9706 19.5018 11.2538C19.1112 11.537 18.6522 11.6786 18.1249 11.6786C17.565 11.6786 17.1076 11.524 16.7528 11.2148C16.398 10.9023 16.1848 10.4645 16.1132 9.90131ZM19.7118 6.74213C19.7118 6.23757 19.5767 5.83718 19.3065 5.54095C19.0396 5.24473 18.7173 5.09662 18.3397 5.09662C17.9491 5.09662 17.6089 5.25612 17.3192 5.57513C17.0295 5.89414 16.8846 6.30756 16.8846 6.81537C16.8846 7.2711 17.0214 7.64219 17.2948 7.92865C17.5715 8.21185 17.9117 8.35345 18.3153 8.35345C18.7222 8.35345 19.0559 8.21185 19.3163 7.92865C19.58 7.64219 19.7118 7.24668 19.7118 6.74213ZM23.6376 10.3994V8.43646H21.6893V7.61615H23.6376V5.66791H24.4677V7.61615H26.4159V8.43646H24.4677V10.3994H23.6376Z" fill="white"/>
</svg>
