<svg width="168" height="64" viewBox="0 0 168 64" fill="none" xmlns="http://www.w3.org/2000/svg">
<rect width="168" height="64" fill="#F5F6FA"/>
<path d="M108.622 33.0805C107.798 35.0174 105.943 36.2537 103.883 36.2537H90.9015V20.0992H85.9562V41.199H103.883C107.963 41.199 111.589 38.7675 113.196 35.0174C113.32 34.7289 113.444 34.3992 113.526 34.1107C113.65 33.7811 113.691 33.4514 113.773 33.0805H108.622Z" fill="#58595B"/>
<path d="M71.8622 41.1991H53.9356V29.454C53.9356 23.8906 58.4688 19.3575 64.0322 19.3575H81.5467V24.3027H64.0322C61.1887 24.3027 58.8809 26.6105 58.8809 29.454V36.2538H71.8622C73.7991 36.2538 75.4887 35.1823 76.3954 33.5751H72.7688V28.6298H81.9588V31.1025C81.9588 36.6659 77.4256 41.1991 71.8622 41.1991Z" fill="#58595B"/>
<path d="M121.026 41.1166H116.081V19.6046H145.835V22.0773C145.835 28.1352 140.89 33.0805 134.832 33.0805H123.293V28.1352H134.832C137.305 28.1352 139.406 26.6516 140.354 24.5499H121.026V41.1166Z" fill="#58595B"/>
<path d="M51.8751 27.0637C51.8751 23.8905 49.32 21.3355 46.1468 21.3355H44.5396V19.7283C44.5396 16.5551 41.9845 14 38.8113 14C37.3277 14 35.9678 14.5769 34.9375 15.5248C33.9073 14.5769 32.5473 14 31.0638 14C27.8905 14 25.3355 16.5551 25.3355 19.7283V21.3355H23.7283C20.5551 21.3355 18 23.8905 18 27.0637C18 30.237 20.5551 32.792 23.7283 32.792H33.0419V42.1056C33.0419 45.2788 35.5969 47.8339 38.7701 47.8339C41.9433 47.8339 44.4984 45.2788 44.4984 42.1056V40.4984H46.1056C49.2788 40.4984 51.8339 37.9433 51.8339 34.7701C51.8339 33.2865 51.2569 31.9266 50.3091 30.8963C51.2981 29.9073 51.8751 28.5473 51.8751 27.0637ZM33.1243 29.0831H23.8107C22.698 29.0831 21.7914 28.1764 21.7914 27.0637C21.7914 25.9511 22.698 25.0444 23.8107 25.0444H29.1268V19.7283C29.1268 18.6156 30.0335 17.709 31.1462 17.709C32.2589 17.709 33.1655 18.6156 33.1655 19.7283V29.0831H33.1243ZM46.1468 36.7894H40.8307V42.1056C40.8307 43.2183 39.924 44.1249 38.8113 44.1249C37.6986 44.1249 36.792 43.2183 36.792 42.1056V32.792H46.1056C47.2183 32.792 48.1249 33.6986 48.1249 34.8113C48.1249 35.924 47.2595 36.7894 46.1468 36.7894ZM46.1468 29.0831H36.8332V19.7695C36.8332 18.6568 37.7399 17.7502 38.8525 17.7502C39.9652 17.7502 40.8719 18.6568 40.8719 19.7695V25.0856H46.188C47.3007 25.0856 48.2073 25.9923 48.2073 27.105C48.2073 28.2176 47.2595 29.0831 46.1468 29.0831ZM18.2473 36.5422V41.2402L27.1487 34.2756H21.132L18.2473 36.5422ZM18.2473 42.765V47.463L31.5995 37.0367V34.3168H29.0856L18.2473 42.765ZM18.2473 53.6033L31.5995 43.2595V38.5615L18.2473 48.9878V53.6033Z" fill="#72BF44"/>
<path d="M56.8616 49.2756H57.3973V50.7591C57.1913 50.924 56.9852 51.0476 56.738 51.13C56.4907 51.2125 56.2434 51.2537 55.955 51.2537C55.5841 51.2537 55.2132 51.1712 54.9247 51.0064C54.6362 50.8416 54.389 50.5943 54.2241 50.3058C54.0593 50.0173 53.9769 49.6877 53.9769 49.3168C53.9769 48.9459 54.0593 48.6162 54.2241 48.3277C54.389 48.0392 54.6362 47.792 54.9247 47.6271C55.2132 47.4623 55.5841 47.3799 55.955 47.3799C56.2434 47.3799 56.5319 47.4211 56.7792 47.5447C57.0264 47.6271 57.2325 47.792 57.3973 47.9568L57.0677 48.2865C56.7792 47.998 56.4083 47.8332 55.9962 47.8332C55.7077 47.8332 55.4604 47.8744 55.2132 47.998C54.9659 48.1217 54.8011 48.2865 54.6774 48.5338C54.5538 48.781 54.4714 48.9871 54.4714 49.2756C54.4714 49.564 54.5538 49.8113 54.6774 50.0174C54.8011 50.2234 54.9659 50.4295 55.2132 50.5531C55.4604 50.6767 55.7077 50.7591 55.9962 50.7591C56.3259 50.7591 56.6143 50.6767 56.8616 50.5119V49.2756Z" fill="#58595B"/>
<path d="M58.7985 50.7599C58.51 50.4714 58.3864 50.0593 58.3864 49.5236V47.3806H58.9221V49.4824C58.9221 50.3066 59.293 50.6775 59.9936 50.6775C60.3233 50.6775 60.6117 50.5951 60.7766 50.389C60.9414 50.183 61.065 49.8945 61.065 49.4824V47.3806H61.6008V49.5236C61.6008 50.0593 61.4772 50.4714 61.1887 50.7599C60.9002 51.0484 60.5293 51.172 60.0348 51.172C59.5402 51.172 59.0869 51.0484 58.7985 50.7599Z" fill="#58595B"/>
<path d="M62.6722 47.4218H63.208V50.7187H65.2273V51.172H62.6722V47.4218Z" fill="#58595B"/>
<path d="M65.8455 47.4218H66.3812V51.172H65.8455V47.4218Z" fill="#58595B"/>
<path d="M70.7495 47.4218V51.172H70.2962L68.0296 48.3697V51.172H67.5351V47.4218H67.9884L70.255 50.2241V47.4218H70.7495Z" fill="#58595B"/>
<path d="M72.5628 50.966C72.2743 50.8011 72.027 50.5539 71.8622 50.2654C71.6974 49.9769 71.6149 49.6472 71.6149 49.2763C71.6149 48.9054 71.6974 48.5758 71.8622 48.2873C72.027 47.9988 72.2743 47.7516 72.5628 47.5867C72.8513 47.4219 73.2221 47.3394 73.593 47.3394C73.8815 47.3394 74.17 47.3807 74.4173 47.5043C74.6645 47.5867 74.8706 47.7516 75.0354 47.9576L74.7057 48.2873C74.4172 47.9988 74.0876 47.834 73.6342 47.834C73.3458 47.834 73.0985 47.9164 72.8925 48.04C72.6864 48.1637 72.4804 48.3285 72.3567 48.5758C72.2331 48.7818 72.1507 49.0291 72.1507 49.3175C72.1507 49.606 72.2331 49.8533 72.3567 50.0593C72.4804 50.2654 72.6452 50.4714 72.8925 50.5951C73.0985 50.7187 73.387 50.8011 73.6342 50.8011C74.0463 50.8011 74.4172 50.6363 74.7057 50.3478L75.0354 50.6775C74.8706 50.8836 74.6645 51.0072 74.4173 51.1308C74.17 51.2544 73.9227 51.2957 73.593 51.2957C73.1809 51.2132 72.8513 51.1308 72.5628 50.966Z" fill="#58595B"/>
<path d="M78.9916 47.4218V51.172H78.4559V49.4823H76.313V51.172H75.7772V47.4218H76.313V49.029H78.4559V47.4218H78.9916Z" fill="#58595B"/>
<path d="M80.5164 50.7599C80.2279 50.4714 80.1043 50.0593 80.1043 49.5236V47.3806H80.64V49.4824C80.64 50.3066 81.0109 50.6775 81.7115 50.6775C82.0412 50.6775 82.3297 50.5951 82.4945 50.389C82.6594 50.183 82.783 49.8945 82.783 49.4824V47.3806H83.3187V49.5236C83.3187 50.0593 83.1951 50.4714 82.9066 50.7599C82.6181 51.0484 82.2473 51.172 81.7527 51.172C81.2582 51.172 80.8049 51.0484 80.5164 50.7599Z" fill="#58595B"/>
<path d="M85.5853 49.4823L84.8847 50.1829V51.172H84.3489V47.4218H84.8847V49.5236L86.9452 47.4218H87.5634L85.9562 49.1114L87.6458 51.172H87.0276L85.5853 49.4823Z" fill="#58595B"/>
<path d="M91.7669 47.4213H92.3027V50.7182H94.322V51.1715H91.7669V47.4213Z" fill="#58595B"/>
<path d="M95.5583 50.966C95.2698 50.8011 95.0225 50.5539 94.8577 50.2654C94.6928 49.9769 94.6104 49.6472 94.6104 49.2763C94.6104 48.9054 94.6928 48.5758 94.8577 48.2873C95.0225 47.9988 95.2698 47.7516 95.5583 47.5867C95.8467 47.4219 96.2176 47.3394 96.5885 47.3394C96.9594 47.3394 97.2891 47.4219 97.6188 47.5867C97.9073 47.7516 98.1545 47.9988 98.3194 48.2873C98.4842 48.5758 98.5666 48.9054 98.5666 49.2763C98.5666 49.6472 98.4842 49.9769 98.3194 50.2654C98.1545 50.5539 97.9073 50.8011 97.6188 50.966C97.3303 51.1308 96.9594 51.2132 96.5885 51.2132C96.1764 51.2132 95.8467 51.1308 95.5583 50.966ZM97.3303 50.5539C97.5364 50.4302 97.7424 50.2654 97.866 50.0181C97.9897 49.7709 98.0721 49.5648 98.0721 49.2763C98.0721 48.9879 97.9897 48.7406 97.866 48.5346C97.7424 48.3285 97.5776 48.1224 97.3303 47.9988C97.1242 47.8752 96.877 47.7928 96.5885 47.7928C96.3 47.7928 96.0528 47.8752 95.8467 47.9988C95.6407 48.1224 95.4346 48.2873 95.311 48.5346C95.1874 48.7818 95.1049 48.9879 95.1049 49.2763C95.1049 49.5648 95.1874 49.8121 95.311 50.0181C95.4346 50.2242 95.5995 50.4302 95.8467 50.5539C96.0528 50.6775 96.3 50.7599 96.5885 50.7599C96.8358 50.7187 97.083 50.6775 97.3303 50.5539Z" fill="#58595B"/>
<path d="M101.987 49.2763H102.523V50.7599C102.317 50.9247 102.111 51.0484 101.863 51.1308C101.616 51.2132 101.369 51.2544 101.08 51.2544C100.71 51.2544 100.339 51.172 100.05 51.0072C99.7617 50.8423 99.5145 50.5951 99.3496 50.3066C99.1848 50.0181 99.1024 49.6884 99.1024 49.3175C99.1024 48.9466 99.1848 48.617 99.3496 48.3285C99.5145 48.04 99.7617 47.7927 100.05 47.6279C100.339 47.4631 100.71 47.3806 101.08 47.3806C101.369 47.3806 101.657 47.4219 101.905 47.5455C102.152 47.6279 102.358 47.7927 102.523 47.9576L102.193 48.2873C101.905 47.9988 101.534 47.834 101.122 47.834C100.833 47.834 100.586 47.8752 100.339 47.9988C100.091 48.1224 99.9266 48.2873 99.8029 48.5345C99.6793 48.7406 99.5969 48.9878 99.5969 49.2763C99.5969 49.5648 99.6793 49.8121 99.8029 50.0181C99.9266 50.2242 100.091 50.4302 100.339 50.5539C100.586 50.6775 100.833 50.7599 101.122 50.7599C101.451 50.7599 101.74 50.6775 101.987 50.5126V49.2763Z" fill="#58595B"/>
<path d="M103.512 47.4218H104.048V51.172H103.512V47.4218Z" fill="#58595B"/>
<path d="M105.449 51.0896C105.202 51.0072 104.995 50.8835 104.831 50.7599L105.037 50.3478C105.16 50.4714 105.366 50.5951 105.572 50.6775C105.778 50.7599 106.026 50.8011 106.273 50.8011C106.603 50.8011 106.809 50.7599 106.974 50.6363C107.138 50.5126 107.221 50.389 107.221 50.2242C107.221 50.1005 107.18 49.9769 107.097 49.8945C107.015 49.8121 106.891 49.7709 106.768 49.7296C106.644 49.6884 106.479 49.6472 106.232 49.5648C105.943 49.4824 105.737 49.4412 105.531 49.3587C105.366 49.2763 105.202 49.1939 105.078 49.0291C104.954 48.9054 104.913 48.6994 104.913 48.4521C104.913 48.2461 104.954 48.0812 105.078 47.9164C105.202 47.7515 105.325 47.6279 105.572 47.5455C105.778 47.4631 106.067 47.3806 106.355 47.3806C106.561 47.3806 106.809 47.4218 107.015 47.4631C107.221 47.5043 107.427 47.5867 107.551 47.7103L107.386 48.1224C107.221 48.04 107.056 47.9576 106.891 47.8752C106.726 47.834 106.52 47.7928 106.355 47.7928C106.067 47.7928 105.82 47.834 105.655 47.9576C105.49 48.0812 105.408 48.2049 105.408 48.3697C105.408 48.4933 105.449 48.617 105.531 48.6994C105.614 48.7818 105.737 48.823 105.861 48.9054C105.985 48.9466 106.149 48.9879 106.397 49.0291C106.685 49.1115 106.891 49.1527 107.097 49.2351C107.262 49.3175 107.427 49.4 107.551 49.5648C107.674 49.6884 107.715 49.8945 107.715 50.1417C107.715 50.3478 107.674 50.5126 107.551 50.6775C107.427 50.8423 107.262 50.966 107.056 51.0484C106.85 51.1308 106.561 51.172 106.232 51.172C105.985 51.2132 105.737 51.172 105.449 51.0896Z" fill="#58595B"/>
<path d="M109.199 47.8751H107.921V47.4218H111.012V47.8751H109.735V51.172H109.199V47.8751Z" fill="#58595B"/>
<path d="M111.63 47.4218H112.166V51.172H111.63V47.4218Z" fill="#58595B"/>
<path d="M113.938 50.966C113.65 50.8011 113.402 50.5539 113.238 50.2654C113.073 49.9769 112.99 49.6472 112.99 49.2763C112.99 48.9054 113.073 48.5758 113.238 48.2873C113.402 47.9988 113.65 47.7516 113.938 47.5867C114.227 47.4219 114.598 47.3394 114.968 47.3394C115.257 47.3394 115.545 47.3807 115.793 47.5043C116.04 47.5867 116.246 47.7516 116.411 47.9576L116.081 48.2873C115.793 47.9988 115.463 47.834 115.01 47.834C114.721 47.834 114.474 47.9164 114.268 48.04C114.062 48.1637 113.856 48.3285 113.732 48.5758C113.609 48.7818 113.526 49.0291 113.526 49.3175C113.526 49.606 113.609 49.8533 113.732 50.0593C113.856 50.2654 114.021 50.4714 114.268 50.5951C114.474 50.7187 114.762 50.8011 115.01 50.8011C115.422 50.8011 115.793 50.6363 116.081 50.3478L116.411 50.6775C116.246 50.8836 116.04 51.0072 115.793 51.1308C115.545 51.2132 115.257 51.2957 114.968 51.2957C114.598 51.2132 114.268 51.1308 113.938 50.966Z" fill="#58595B"/>
<path d="M123.005 47.7514C123.293 47.9986 123.417 48.2871 123.417 48.6992C123.417 49.1113 123.293 49.441 123.005 49.6471C122.716 49.8531 122.345 49.9768 121.851 49.9768H120.903V51.1306H120.367V47.3805H121.851C122.345 47.4217 122.716 47.5041 123.005 47.7514ZM122.592 49.3586C122.757 49.1938 122.881 48.9877 122.881 48.7404C122.881 48.4932 122.798 48.2459 122.592 48.1223C122.428 47.9574 122.139 47.9162 121.809 47.9162H120.903V49.6059H121.809C122.18 49.5647 122.428 49.4822 122.592 49.3586Z" fill="#58595B"/>
<path d="M126.425 50.224H124.406L123.993 51.1719H123.458L125.147 47.4217H125.683L127.373 51.1719H126.796L126.425 50.224ZM126.219 49.8119L125.395 47.9574L124.57 49.8119H126.219Z" fill="#58595B"/>
<path d="M130.464 51.1719L129.639 50.018C129.557 50.018 129.474 50.018 129.392 50.018H128.444V51.1719H127.909V47.4217H129.392C129.887 47.4217 130.258 47.5453 130.546 47.7514C130.834 47.9986 130.958 48.2871 130.958 48.6992C130.958 48.9877 130.876 49.235 130.752 49.441C130.628 49.6471 130.422 49.8119 130.134 49.8943L131.041 51.1719H130.464ZM130.175 49.3586C130.34 49.1938 130.464 48.9877 130.464 48.7404C130.464 48.4932 130.381 48.2459 130.175 48.1223C130.01 47.9574 129.722 47.9162 129.392 47.9162H128.485V49.6059H129.392C129.722 49.5646 130.01 49.4822 130.175 49.3586Z" fill="#58595B"/>
<path d="M132.524 47.875H131.247V47.4217H134.337V47.875H133.06V51.1719H132.524V47.875Z" fill="#58595B"/>
<path d="M138.17 47.4217V51.1719H137.717L135.45 48.3695V51.1719H134.914V47.4217H135.368L137.634 50.224V47.4217H138.17Z" fill="#58595B"/>
<path d="M142.044 50.7185V51.1719H139.324V47.4217H141.961V47.875H139.86V49.0289H141.755V49.4822H139.86V50.6773H142.044V50.7185Z" fill="#58595B"/>
<path d="M145.423 51.1719L144.599 50.018C144.516 50.018 144.434 50.018 144.352 50.018H143.404V51.1719H142.868V47.4217H144.352C144.846 47.4217 145.217 47.5453 145.505 47.7514C145.794 47.9986 145.918 48.2871 145.918 48.6992C145.918 48.9877 145.835 49.235 145.711 49.441C145.588 49.6471 145.382 49.8119 145.093 49.8943L146 51.1719H145.423ZM145.135 49.3586C145.299 49.1938 145.423 48.9877 145.423 48.7404C145.423 48.4932 145.341 48.2459 145.135 48.1223C144.97 47.9574 144.681 47.9162 144.352 47.9162H143.445V49.6059H144.352C144.681 49.5646 144.928 49.4822 145.135 49.3586Z" fill="#58595B"/>
</svg>
