<svg width="18" height="17" viewBox="0 0 18 17" fill="none" xmlns="http://www.w3.org/2000/svg">
<path d="M15.677 16.607L9.96202 10.891C8.73581 11.7628 7.22684 12.142 5.73417 11.9537C4.24149 11.7653 2.87407 11.023 1.90289 9.87393C0.931718 8.72485 0.427682 7.25284 0.490679 5.74965C0.553676 4.24646 1.17911 2.82179 2.24302 1.758C3.30665 0.693748 4.73131 0.0679685 6.23461 0.00470063C7.73792 -0.0585672 9.21012 0.445295 10.3594 1.41641C11.5087 2.38753 12.2512 3.75501 12.4396 5.2478C12.6281 6.74058 12.2489 8.24969 11.377 9.476L17.092 15.192L15.678 16.606L15.677 16.607ZM6.48502 2C5.56508 1.99978 4.67318 2.31667 3.9596 2.89727C3.24602 3.47786 2.75437 4.28667 2.56749 5.18743C2.38062 6.08819 2.50993 7.02583 2.93365 7.84238C3.35737 8.65893 4.0496 9.30447 4.8937 9.67024C5.7378 10.036 6.68217 10.0996 7.56771 9.85042C8.45325 9.60121 9.22583 9.05437 9.75526 8.30205C10.2847 7.54973 10.5386 6.63791 10.4743 5.72023C10.41 4.80254 10.0313 3.93508 9.40202 3.264L10.007 3.864L9.32502 3.184L9.31302 3.172C8.9426 2.79929 8.5019 2.50379 8.01646 2.30261C7.53102 2.10143 7.01049 1.99858 6.48502 2Z" fill="#58595B"/>
</svg>
